<svg width="103" height="104" viewBox="0 0 103 104" fill="none" xmlns="http://www.w3.org/2000/svg">
<path d="M21.5 26.5013C36.6576 8.43529 56.7907 3.34733 74.8567 18.505C92.9227 33.6627 98.697 60.6756 83.5393 78.7415C68.3817 96.8075 44.3248 97.3979 26.2588 82.2402C8.19282 67.0826 6.34228 44.5672 21.5 26.5013Z" fill="#FCD34D"/>
<path d="M40.3556 63.6451C39.9681 62.4307 39.8489 61.3036 39.9981 60.2636C40.161 59.2194 40.4952 58.2407 41.0006 57.3277C41.5017 56.401 42.1288 55.5393 42.8819 54.7427C43.6443 53.9281 44.438 53.1411 45.2631 52.3816C45.0067 52.2379 44.7777 52.0855 44.5759 51.9243C43.9787 51.5135 43.4181 51.076 42.8941 50.6118C42.3701 50.1476 41.8873 49.6477 41.4457 49.112C41.0178 48.572 40.6379 47.9942 40.3061 47.3784C39.9699 46.749 39.7001 46.0683 39.4966 45.3365C39.3709 44.8955 39.2957 44.4008 39.271 43.8524C39.2556 43.286 39.306 42.7136 39.4221 42.1353C39.5476 41.539 39.7546 40.9392 40.0431 40.3359C40.3317 39.7326 40.7196 39.1578 41.2067 38.6114C41.7032 38.0471 42.3144 37.5363 43.0405 37.079C43.7759 36.6038 44.6416 36.2072 45.6377 35.8893C46.6611 35.5627 47.6551 35.4033 48.6198 35.4112C49.5982 35.4147 50.4976 35.5712 51.318 35.8807C52.1341 36.1765 52.8396 36.6204 53.4344 37.2124C54.0386 37.7863 54.4713 38.4826 54.7326 39.3013C55.1332 40.5567 55.2635 41.6953 55.1236 42.7172C54.9973 43.7348 54.6975 44.6799 54.2243 45.5526C53.7604 46.4072 53.177 47.2174 52.4741 47.9829C51.7806 48.7305 51.0668 49.4619 50.3329 50.1773C50.3329 50.1773 50.3419 50.1819 50.3599 50.1912C51.1818 50.7408 52.0015 51.2835 52.819 51.8195C53.6322 52.3417 54.4745 52.8848 55.346 53.4486C56.2312 54.008 57.1567 54.5997 58.1226 55.2236C59.0978 55.8295 60.1493 56.4862 61.2772 57.1937L61.9308 57.6166C62.4897 56.0701 62.8587 54.4939 63.0378 52.8882C63.2263 51.2645 63.1778 49.7464 62.8924 48.334C62.7772 47.7844 62.6545 47.2823 62.5244 46.8277C62.3944 46.3731 62.2021 46.0059 61.9474 45.7264C61.7065 45.4424 61.3781 45.2616 60.9624 45.1838C60.5423 45.0923 59.9914 45.1328 59.3098 45.3052L58.6753 43.3879L62.0729 42.3035C63.1645 41.9552 64.065 42.0211 64.7746 42.5013C65.4797 42.9678 65.9978 43.7196 66.3288 44.7566C66.5944 45.5889 66.7472 46.5625 66.7873 47.6773C66.8366 48.7741 66.7762 49.9511 66.6061 51.2082C66.4316 52.4516 66.1433 53.7388 65.7412 55.0699C65.3528 56.3967 64.8604 57.704 64.2641 58.9918C65.0195 59.4273 65.6675 59.7617 66.208 59.9952C66.7486 60.2286 67.2289 60.391 67.649 60.4825C68.0784 60.5559 68.4745 60.5723 68.8374 60.5317C69.214 60.4867 69.6137 60.3967 70.0367 60.2617C70.3778 60.1528 70.7419 60.0216 71.1289 59.868C71.5115 59.7008 71.976 59.5075 72.5224 59.288L73.0066 60.7346C72.7471 61.1933 72.4199 61.6285 72.0251 62.0402C71.6898 62.4028 71.2502 62.7686 70.7064 63.1376C70.167 63.5202 69.5085 63.8356 68.7307 64.0838C68.1849 64.258 67.6018 64.3389 66.9814 64.3264C66.3746 64.3095 65.7641 64.2338 65.1498 64.0991C64.5491 63.96 63.9692 63.7917 63.4101 63.5943C62.8646 63.3926 62.3712 63.1892 61.9299 62.9842C60.9205 64.3438 59.7704 65.5452 58.4796 66.5886C57.1889 67.632 55.7384 68.4106 54.1283 68.9245C52.4364 69.4644 50.8409 69.718 49.342 69.6852C47.8431 69.6524 46.4898 69.3927 45.2821 68.9061C44.088 68.4152 43.0619 67.7203 42.2038 66.8215C41.3592 65.9183 40.7432 64.8595 40.3556 63.6451ZM48.6681 49.1299C49.1967 48.5252 49.6531 47.906 50.0372 47.2722C50.4306 46.6205 50.7334 45.9675 50.9456 45.3135C51.1671 44.6414 51.2913 43.9703 51.318 43.3003C51.3403 42.6166 51.2448 41.9404 51.0315 41.2718C50.7832 40.4941 50.4607 39.8603 50.0638 39.3705C49.667 38.8808 49.2346 38.5151 48.7666 38.2736C48.2942 38.0184 47.8046 37.8739 47.2977 37.8403C46.8045 37.8022 46.3395 37.8529 45.9029 37.9922C45.1797 38.223 44.6027 38.535 44.1719 38.9281C43.7503 39.3031 43.4368 39.734 43.2312 40.2205C43.0213 40.6935 42.9107 41.1948 42.8994 41.7247C42.9017 42.2501 42.9766 42.7675 43.1241 43.2767C43.3145 43.9676 43.5964 44.5918 43.9698 45.1492C44.3524 45.6886 44.7921 46.1948 45.2888 46.6677C45.7812 47.127 46.317 47.5574 46.8961 47.9589C47.4753 48.3604 48.066 48.7508 48.6681 49.1299ZM44.6986 61.4247C45.0949 62.6663 45.6941 63.6253 46.4963 64.3014C47.312 64.9732 48.2188 65.4355 49.2166 65.6884C50.2101 65.9276 51.2329 65.9996 52.285 65.9044C53.3507 65.8049 54.3339 65.6114 55.2345 65.324C56.0941 65.0496 56.9061 64.6025 57.6705 63.9827C58.4349 63.3629 59.1285 62.6153 59.7512 61.74C59.3918 61.509 58.9291 61.2131 58.3629 60.8525C57.7925 60.4783 57.159 60.0716 56.4625 59.6323C55.7797 59.1887 55.0429 58.7172 54.2521 58.2179C53.4569 57.7049 52.6527 57.1873 51.8396 56.665C51.0264 56.1427 50.2154 55.6272 49.4066 55.1186C48.6114 54.6056 47.8612 54.1158 47.1561 53.6493C46.7415 54.1875 46.34 54.7667 45.9515 55.3868C45.5631 56.0069 45.2355 56.6527 44.9687 57.3242C44.7111 57.9777 44.5439 58.655 44.467 59.3561C44.3993 60.0393 44.4765 60.7288 44.6986 61.4247Z" fill="#18211C"/>
</svg>
