<svg width="28" height="31" viewBox="0 0 28 31" fill="none" xmlns="http://www.w3.org/2000/svg">
<path d="M10.0176 26.9136C10.0176 26.1152 10.1355 25.4106 10.3714 24.8C10.6073 24.1424 10.9847 23.3439 11.5036 22.4045C12.1169 21.2303 12.5887 20.15 12.9189 19.1636C13.2963 18.1773 13.485 16.9561 13.485 15.5C13.485 14.0439 13.2963 12.8227 12.9189 11.8364C12.5887 10.803 12.1169 9.72273 11.5036 8.59546C10.9847 7.65606 10.6073 6.88106 10.3714 6.27046C10.1355 5.61288 10.0176 4.88485 10.0176 4.08637C10.0176 2.86515 10.4186 1.87879 11.2206 1.12727C12.0225 0.375758 12.9425 0 13.9804 0C15.0654 0 16.0089 0.375758 16.8109 1.12727C17.6129 1.87879 18.0139 2.86515 18.0139 4.08637C18.0139 4.83788 17.896 5.54242 17.6601 6.2C17.4242 6.81061 17.0468 7.60909 16.5279 8.59546C15.9146 9.7697 15.4428 10.85 15.1126 11.8364C14.8295 12.8227 14.688 14.0439 14.688 15.5C14.688 16.9091 14.8295 18.1303 15.1126 19.1636C15.4428 20.15 15.9146 21.2303 16.5279 22.4045C17.0468 23.3439 17.4242 24.1424 17.6601 24.8C17.896 25.4106 18.0139 26.1152 18.0139 26.9136C18.0139 28.1348 17.6129 29.1212 16.8109 29.8727C16.0089 30.6242 15.0654 31 13.9804 31C12.9425 31 12.0225 30.6242 11.2206 29.8727C10.4186 29.1212 10.0176 28.1348 10.0176 26.9136ZM2.09197 17.7545C2.75243 17.3788 3.4129 17.1439 4.07337 17.05C4.78101 16.9091 5.65377 16.8386 6.69164 16.8386C7.9654 16.7917 9.1448 16.6742 10.2299 16.4864C11.3149 16.2515 12.4707 15.7583 13.6973 15.0068C15.0182 14.2553 16.0325 13.4803 16.7402 12.6818C17.4478 11.8833 18.1554 10.9439 18.8631 9.86364C19.382 9.01818 19.8538 8.31364 20.2784 7.75C20.703 7.18636 21.2455 6.71667 21.906 6.34091C22.991 5.7303 24.0525 5.58939 25.0903 5.91818C26.1754 6.24697 26.9774 6.85758 27.4963 7.75C28.0153 8.64242 28.1332 9.62879 27.8501 10.7091C27.6143 11.7424 26.9774 12.5879 25.9395 13.2455C25.2319 13.6212 24.5478 13.8795 23.8874 14.0205C23.2269 14.1144 22.4013 14.1849 21.4106 14.2318C20.0425 14.2788 18.8395 14.4197 17.8016 14.6545C16.7638 14.8894 15.6315 15.3826 14.4049 16.1341C13.084 16.8856 12.0697 17.6371 11.3621 18.3886C10.7016 19.0932 9.97039 20.0326 9.16839 21.2068C8.64945 22.0523 8.17769 22.7568 7.75311 23.3205C7.32852 23.8371 6.76241 24.2833 6.05476 24.6591C5.01689 25.2227 3.95543 25.3636 2.87037 25.0818C1.8325 24.753 1.05409 24.1424 0.535155 23.25C0.0162168 22.3576 -0.125312 21.3947 0.110569 20.3614C0.393626 19.2811 1.05409 18.4121 2.09197 17.7545ZM6.05476 6.34091C6.76241 6.71667 7.30493 7.18636 7.68234 7.75C8.10693 8.26667 8.60228 8.97121 9.16839 9.86364C9.87603 10.9909 10.5837 11.9538 11.2913 12.7523C11.999 13.5038 12.9897 14.2553 14.2634 15.0068C15.49 15.7583 16.6458 16.2515 17.7309 16.4864C18.8159 16.6742 20.0189 16.7917 21.3398 16.8386C22.3777 16.8386 23.2269 16.9091 23.8874 17.05C24.5478 17.1439 25.2319 17.3788 25.9395 17.7545C26.9774 18.4121 27.6143 19.2811 27.8501 20.3614C28.1332 21.3947 28.0153 22.3576 27.4963 23.25C26.9774 24.1424 26.1754 24.753 25.0903 25.0818C24.0525 25.3636 22.991 25.2227 21.906 24.6591C21.2455 24.2833 20.6794 23.8371 20.2076 23.3205C19.783 22.8038 19.3113 22.0758 18.7923 21.1364C18.0847 20.0561 17.377 19.1402 16.6694 18.3886C15.9618 17.6371 14.9711 16.8856 13.6973 16.1341C12.4235 15.3826 11.2677 14.8894 10.2299 14.6545C9.19198 14.4197 8.01258 14.2788 6.69164 14.2318C5.70094 14.1849 4.85177 14.1144 4.14413 14.0205C3.43649 13.8795 2.75243 13.6212 2.09197 13.2455C1.05409 12.5879 0.393626 11.7424 0.110569 10.7091C-0.125312 9.62879 0.0162168 8.64242 0.535155 7.75C1.05409 6.85758 1.8325 6.24697 2.87037 5.91818C3.95543 5.58939 5.01689 5.7303 6.05476 6.34091Z" fill="white"/>
</svg>
